<?xml version="1.0" encoding="UTF-8"?>
<svg width="62px" height="58px" viewBox="0 0 62 58" version="1.1" xmlns="http://www.w3.org/2000/svg" xmlns:xlink="http://www.w3.org/1999/xlink">
    <!-- Generator: Sketch 47 (45396) - http://www.bohemiancoding.com/sketch -->
    <title>Group 4</title>
    <desc>Created with Sketch.</desc>
    <defs>
        <polygon id="path-1" points="61.8820488 52.6014913 61.8820488 0.043863671 6.83135515e-21 0.043863671 0 52.6014913"></polygon>
    </defs>
    <g id="Page-1" stroke="none" stroke-width="1" fill="none" fill-rule="evenodd">
        <g id="MainePage_PrimeSource" transform="translate(-548.000000, -1284.000000)">
            <g id="Group-4" transform="translate(548.000000, 1284.000000)">
                <g id="Page-1">
                    <path d="M8,17 C8.551,17 9,17.449 9,18 C9,18.551 8.551,19 8,19 C7.449,19 7,18.551 7,18 C7,17.449 7.449,17 8,17 M8,21 C9.654,21 11,19.654 11,18 C11,16.346 9.654,15 8,15 C6.346,15 5,16.346 5,18 C5,19.654 6.346,21 8,21" id="Fill-1" fill="#ED1C24"></path>
                    <g id="Group-5" transform="translate(0.000000, 1.000000)">
                        <mask id="mask-2" fill="white">
                            <use xlink:href="#path-1"></use>
                        </mask>
                        <g id="Clip-4"></g>
                        <path d="M44.4485183,39.2960531 L33.603937,50.0228958 C32.8711524,50.7477246 31.6209451,50.7676683 30.8488435,50.0995544 L35.045689,45.9482736 C35.6384695,45.3609317 35.9659858,44.5791387 35.9659858,43.7474865 C35.9659858,42.0682271 34.6130752,40.7050754 32.9306321,40.6462415 C32.8721606,39.0188357 31.5513841,37.7125235 29.9062419,37.6546867 C29.8476443,36.027281 28.5269939,34.7209688 26.8818516,34.663132 C26.8222459,32.9988304 25.44325,31.6606083 23.7465671,31.6606083 C22.9056606,31.6606083 22.1152866,31.9846934 21.521498,32.5721599 L17.8197703,36.2336983 L13.78725,32.2449586 L13.78725,30.079073 L26.8929411,17.1156693 L28.1963272,18.4050293 C28.3848476,18.5925001 28.6419207,18.6972045 28.9092012,18.6972045 L32.5242297,18.6972045 L33.5294614,19.6913979 L26.1195793,26.9638674 C25.9291687,27.1513381 25.8212988,27.4076147 25.8221809,27.673863 C25.823315,27.9401114 25.931185,28.1953907 26.1227297,28.3818643 C28.7729776,30.9645732 33.0717703,30.9486183 35.7019817,28.3450931 L35.9659858,28.0848279 L44.4485183,36.475017 C44.8294654,36.8520775 45.0391565,37.3525397 45.0391565,37.8860336 C45.0391565,38.4195276 44.8294654,38.9192419 44.4485183,39.2960531 L44.4485183,39.2960531 Z M26.8929411,48.4920923 C26.8929411,48.1929368 27.0108923,47.9127279 27.2236077,47.7014493 L32.0201646,42.9567189 C32.2338882,42.7463129 32.5171728,42.6296422 32.8197378,42.6296422 C33.4426362,42.6296422 33.9497256,43.1313509 33.9497256,43.7474865 C33.9497256,44.046642 33.8319004,44.3268509 33.6190589,44.5382541 L28.822502,49.2828599 C28.6087785,49.4933906 28.3254939,49.6099366 28.0229289,49.6099366 C27.3999045,49.6099366 26.8929411,49.1083526 26.8929411,48.4920923 L26.8929411,48.4920923 Z M23.8685508,45.5005376 C23.8685508,45.2013821 23.986502,44.9211732 24.1992175,44.7098946 L28.9959004,39.9651642 C29.209498,39.7547582 29.4927825,39.6380875 29.7953476,39.6380875 C30.418372,39.6380875 30.9254614,40.1397962 30.9254614,40.7559318 C30.9254614,41.0550873 30.8073841,41.3352962 30.5946687,41.5466994 L25.7981118,46.2913052 C25.5843882,46.5018359 25.3011037,46.6183819 24.9985386,46.6183819 C24.3755142,46.6183819 23.8685508,46.1167979 23.8685508,45.5005376 L23.8685508,45.5005376 Z M20.8441606,42.5089829 C20.8441606,42.2098274 20.9621118,41.9296184 21.1748272,41.7183399 L25.9715102,36.9736095 C26.1851077,36.7632034 26.4683923,36.6465328 26.7709573,36.6465328 C27.3939817,36.6465328 27.9010711,37.1482415 27.9010711,37.7643771 C27.9010711,38.0635326 27.7829939,38.3437415 27.5702785,38.5551447 L22.7737215,43.2997505 C22.559998,43.5102812 22.2767134,43.6268271 21.9741484,43.6268271 C21.351124,43.6268271 20.8441606,43.1252431 20.8441606,42.5089829 L20.8441606,42.5089829 Z M17.8197703,39.5174282 C17.8197703,39.2182727 17.9377215,38.9380637 18.150437,38.7267852 L22.9471199,33.9820547 C23.1607175,33.7716487 23.444002,33.6549781 23.7465671,33.6549781 C24.3695915,33.6549781 24.8766809,34.1566867 24.8766809,34.7728224 C24.8766809,35.0719778 24.7586037,35.3521868 24.5458882,35.56359 L19.7493313,40.3081958 C19.5356077,40.5187264 19.2523232,40.6352724 18.9497581,40.6352724 C18.3267337,40.6352724 17.8197703,40.1336884 17.8197703,39.5174282 L17.8197703,39.5174282 Z M22.8604207,13.1269296 L25.4674451,15.7056498 L12.74875,28.2861346 L10.028815,25.8200963 L22.8604207,13.1269296 Z M61.8821118,22.393769 L60.4564898,20.9837495 L46.0302744,35.2534655 C45.9757093,35.1926372 45.9323598,35.1238315 45.8740142,35.0651222 L37.3916077,26.6746838 L38.6951199,25.3853237 L37.269498,23.9753042 L34.2763598,26.9359462 C32.6725508,28.5215948 30.1895264,28.7408509 28.341624,27.5930911 L35.6675793,20.4033879 C35.6685874,20.4023907 35.6685874,20.4013935 35.6697215,20.4003963 L54.8241931,1.45388313 L53.3985711,0.043863671 L34.9578557,18.28437 L33.6544695,16.9950099 C33.4659492,16.8075391 33.208876,16.7028347 32.9415955,16.7028347 L29.3265671,16.7028347 L27.605563,15.0006401 L13.4917419,1.04005139 L12.0662459,2.45007085 L21.4349248,11.7169102 L8.54094106,24.4709051 L1.36305488,17.9622792 L-6.30081301e-05,19.433127 L11.7709898,30.1049998 L11.7709898,32.6577932 C11.7709898,32.9220472 11.8767175,33.1763293 12.066372,33.3628029 L16.4264085,37.6756276 C16.0283232,38.2071272 15.8035102,38.8433312 15.8035102,39.5174282 C15.8035102,41.1966875 17.1562947,42.5599639 18.8388638,42.6186732 C18.8973354,44.246079 20.2181118,45.5523912 21.8632541,45.6102279 C21.9217256,47.2376337 23.242502,48.5439459 24.8876443,48.6017826 C24.94725,50.2660842 26.3262459,51.6043064 28.0229289,51.6043064 C28.4515102,51.6043064 28.8668598,51.5175513 29.2499492,51.3570045 L29.3265671,51.4327906 C30.0877053,52.1866624 31.10075,52.6014913 32.1785671,52.6014913 C33.2562581,52.6014913 34.2684207,52.1866624 35.0295589,51.4327906 L45.8740142,40.7061972 C46.6360346,39.9522008 47.0554167,38.9510271 47.0554167,37.8860336 C47.0554167,37.630879 47.0283232,37.3794637 46.9809411,37.133159 L61.8821118,22.393769 Z" id="Fill-3" fill="#EE1F27" mask="url(#mask-2)"></path>
                    </g>
                    <path d="M6.92153285,42 L5,43.0516156 C5.36021898,43.7097481 5.75,44.3658269 6.15839416,45 L8,43.8148959 C7.6189781,43.2235761 7.25656934,42.6133625 6.92153285,42" id="Fill-6" fill="#ED1C24"></path>
                    <path d="M20,55.4823646 C20.5071203,55.6723225 21.0300633,55.8465496 21.5553797,56 L22,54.4812268 C21.5118671,54.3379669 21.0261076,54.1765026 20.5545886,54 L20,55.4823646 Z" id="Fill-8" fill="#ED1C24"></path>
                    <path d="M13,52.7247575 C13.5928854,53.1700952 14.2105641,53.5989939 14.8336328,54 L16,52.1868487 C15.4200503,51.812792 14.8454905,51.4139418 14.2946461,51 L13,52.7247575 Z" id="Fill-10" fill="#ED1C24"></path>
                    <path d="M17,54.9612374 C17.6726257,55.3291092 18.3687151,55.6790906 19.0692737,56 L20,53.9672009 C19.347486,53.6675363 18.6994413,53.3421543 18.0726257,53 L17,54.9612374 Z" id="Fill-12" fill="#ED1C24"></path>
                    <path d="M10,49.500531 C10.5159236,50.0176991 11.0573248,50.5221239 11.6082803,51 L13,49.3953982 C12.4861996,48.9504425 11.9830149,48.4801327 11.5021231,48 L10,49.500531 Z" id="Fill-14" fill="#ED1C24"></path>
                    <path d="M9.70818505,45 L8,46.280683 C8.44199288,46.8697972 8.90854093,47.4482391 9.38683274,48 L11,46.6008538 C10.5558719,46.0875133 10.1213523,45.5485592 9.70818505,45" id="Fill-16" fill="#ED1C24"></path>
                    <path d="M3.81446112,31 L2,31.1290909 C2.04365621,31.7518182 2.11095953,32.3807955 2.19918145,33 L4,32.7436364 C3.91814461,32.1663636 3.85538881,31.58 3.81446112,31" id="Fill-18" fill="#ED1C24"></path>
                    <path d="M4,26.1372561 L2.07059961,26 C2.02321083,26.6572827 2,27.3290642 2,27.9969794 L2,28 L3.93423598,27.9969794 C3.93423598,27.374494 3.95647969,26.7481423 4,26.1372561" id="Fill-20" fill="#ED1C24"></path>
                    <path d="M3.60823045,35 L2,35.3495475 C2.12016461,35.903332 2.2617284,36.458659 2.42057613,37 L4,36.5376388 C3.8526749,36.0333196 3.72098765,35.5158371 3.60823045,35" id="Fill-22" fill="#ED1C24"></path>
                    <path d="M6.15319801,39 L4,39.8047028 C4.27575642,40.5424549 4.58138644,41.2816436 4.90999617,42 L7,41.0447297 C6.69436997,40.3746468 6.40942168,39.6873234 6.15319801,39" id="Fill-24" fill="#ED1C24"></path>
                    <path d="M55,42.9273743 L56.9616244,44 C57.3293592,43.3273743 57.6792101,42.6312849 58,41.9307263 L55.9679583,41 C55.6682656,41.652514 55.3431446,42.3005587 55,42.9273743" id="Fill-26" fill="#ED1C24"></path>
                    <path d="M53,45.705819 L54.7242153,47 C55.1682008,46.4096175 55.5970994,45.7921606 56,45.1670259 L54.1874186,44 C53.8125365,44.5818966 53.4125993,45.1551724 53,45.705819" id="Fill-28" fill="#ED1C24"></path>
                    <path d="M51,48.4978769 L52.500531,50 C53.0176991,49.4842091 53.5221239,48.9428079 54,48.3917197 L52.3953982,47 C51.9504425,47.5138004 51.4810619,48.0180467 51,48.4978769" id="Fill-30" fill="#ED1C24"></path>
                    <path d="M56,38.4462025 L57.4822913,39 C57.6731302,38.4912975 57.8464583,37.9675633 58,37.4446203 L56.481203,37 C56.3379501,37.4865506 56.1764939,37.9731013 56,38.4462025" id="Fill-32" fill="#ED1C24"></path>
                    <path d="M58,34.6352567 L59.6853618,35 C59.810355,34.4231992 59.9162761,33.8328215 60,33.2430904 L58.2940574,33 C58.2155056,33.5482463 58.116373,34.0983244 58,34.6352567" id="Fill-34" fill="#ED1C24"></path>
                    <path d="M47,51.2924226 L48.28074,53 C48.8688131,52.5592316 49.4472807,52.0928495 50,51.6136606 L48.6019923,50 C48.0874283,50.4461046 47.5484502,50.8804696 47,51.2924226" id="Fill-36" fill="#ED1C24"></path>
                    <path d="M24,56.6852091 C24.5767241,56.810263 25.1672414,56.9164511 25.7568966,57 L26,55.2932298 C25.4517241,55.2147477 24.9017241,55.1155671 24.3646552,55 L24,56.6852091 Z" id="Fill-38" fill="#ED1C24"></path>
                    <path d="M58,29.8636364 L59.9303338,30 C59.9767779,29.3394584 60,28.6663443 60,28 L58.0648283,28 C58.0648283,28.6218569 58.0435414,29.2495164 58,29.8636364" id="Fill-40" fill="#ED1C24"></path>
                    <path d="M33,56.1855389 L33.1291972,58 C33.7517755,57.9563438 34.3808306,57.8890405 35,57.8008186 L34.7436509,56 C34.1672064,56.0818554 33.5808761,56.1446112 33,56.1855389" id="Fill-42" fill="#ED1C24"></path>
                    <path d="M29.1364296,56 L29,57.9303338 C29.6598936,57.9767779 30.3333333,58 31,58 L30.9990324,56.0648283 C30.3768747,56.0648283 29.7508466,56.0435414 29.1364296,56" id="Fill-44" fill="#ED1C24"></path>
                    <path d="M44,53.0777656 L45.0518627,55 C45.7136596,54.6375958 46.3688824,54.2486309 47,53.8422782 L45.8144631,52 C45.2271731,52.3778751 44.6168736,52.7404162 44,53.0777656" id="Fill-46" fill="#ED1C24"></path>
                    <path d="M41,54.846802 L41.8037562,57 C42.5421138,56.7242436 43.2813338,56.4186136 44,56.0900038 L43.0446052,54 C42.3742334,54.30563 41.6864699,54.5918709 41,54.846802" id="Fill-48" fill="#ED1C24"></path>
                    <path d="M37,55.3918523 L37.3496503,57 C37.903332,56.8798416 38.4587618,56.7382851 39,56.5794455 L38.5376388,55 C38.0334225,55.1474204 37.5166598,55.278998 37,55.3918523" id="Fill-50" fill="#ED1C24"></path>
                    <path d="M45,3.08567208 C44.3201793,2.69017725 43.6392496,2.3245938 42.977173,2 L42,3.98966027 C42.615637,4.29098966 43.2488794,4.63109306 43.8821219,5 L45,3.08567208 Z" id="Fill-52" fill="#ED1C24"></path>
                    <path d="M30.4058252,1.96463654 C30.9184466,1.96463654 31.4194175,1.97642436 31.9087379,2 L32,0.0373280943 C31.4805825,0.0127701375 30.9504854,0 30.4058252,0 L30,0.00294695481 L30.0281553,1.9675835 L30.4058252,1.96463654 Z" id="Fill-54" fill="#ED1C24"></path>
                    <path d="M41,1.53154574 C40.4881703,1.33123028 39.964511,1.15299685 39.442429,1 L39,2.51419558 C39.4771293,2.65378549 39.9566246,2.8170347 40.4250789,3 L41,1.53154574 Z" id="Fill-56" fill="#ED1C24"></path>
                    <path d="M37,0.281961471 C36.4199475,0.166374781 35.8153981,0.0718038529 35.2029746,0 L35,1.73905429 C35.5651794,1.8056042 36.1233596,1.89316988 36.6587927,2 L37,0.281961471 Z" id="Fill-58" fill="#ED1C24"></path>
                    <path d="M21,4.12671233 L20.1689498,2 C19.4372146,2.28538813 18.7077626,2.60045662 18,2.93721461 L18.9783105,5 C19.6381279,4.68721461 20.3184932,4.39269406 21,4.12671233" id="Fill-60" fill="#ED1C24"></path>
                    <path d="M24,2.58955528 L23.631171,1 C23.0836393,1.12729498 22.5344757,1.2749898 22,1.44063647 L22.4822521,3 C22.9791922,2.84577723 23.4900041,2.70787434 24,2.58955528" id="Fill-62" fill="#ED1C24"></path>
                    <path d="M28,1.79146067 L27.8480899,0 C27.2305618,0.0530337079 26.6085393,0.127640449 26,0.223820225 L26.2804494,2 C26.8458427,1.91011236 27.4247191,1.84 28,1.79146067" id="Fill-64" fill="#ED1C24"></path>
                </g>
            </g>
        </g>
    </g>
</svg>