<?xml version="1.0" encoding="UTF-8"?>
<svg width="60px" height="60px" viewBox="0 0 60 60" version="1.1" xmlns="http://www.w3.org/2000/svg" xmlns:xlink="http://www.w3.org/1999/xlink">
    <!-- Generator: Sketch 47 (45396) - http://www.bohemiancoding.com/sketch -->
    <title>Group 10</title>
    <desc>Created with Sketch.</desc>
    <defs>
        <polygon id="path-1" points="0 60 60 60 60 0 0 0"></polygon>
    </defs>
    <g id="Page-1" stroke="none" stroke-width="1" fill="none" fill-rule="evenodd">
        <g id="MainePage_PrimeSource" transform="translate(-361.000000, -1283.000000)">
            <g id="Group-10" transform="translate(361.000000, 1283.000000)">
                <g id="Page-1">
                    <path d="M1.98399516,57.9661017 L11.2363438,57.9661017 C10.8605085,55.9779661 9.40060533,54.4169492 7.55447942,54.0101695 L7.55447942,55.9322034 L5.66585956,55.9322034 L5.66585956,54.0101695 C3.81973366,54.4159322 2.35983051,55.9779661 1.98399516,57.9661017 Z M6.61016949,51.8644068 C10.2542615,51.8644068 13.220339,55.0586441 13.220339,58.9830508 C13.220339,59.5454237 12.7982324,60 12.2760291,60 L0.944309927,60 C0.422106538,60 0,59.5454237 0,58.9830508 C0,55.0586441 2.96607748,51.8644068 6.61016949,51.8644068 Z" id="Fill-1" fill="#ED1C24"></path>
                    <path d="M58,49 L56.541,49 C56.104,49 55.719,49.283 55.587,49.699 C55.435,50.182 55.23,50.674 54.977,51.158 C54.775,51.546 54.848,52.019 55.157,52.328 L56.193,53.364 L53.365,56.192 L52.329,55.156 C52.019,54.847 51.547,54.775 51.159,54.976 C50.675,55.229 50.183,55.434 49.7,55.586 C49.283,55.719 49,56.104 49,56.541 L49,58 L45,58 L45,56.541 C45,56.104 44.717,55.719 44.301,55.587 C43.818,55.435 43.326,55.23 42.842,54.977 C42.454,54.776 41.981,54.848 41.672,55.157 L40.636,56.193 L37.808,53.365 L38.844,52.329 C39.153,52.02 39.226,51.547 39.024,51.159 C38.771,50.675 38.566,50.183 38.414125,49.7 C38.281,49.283 37.896,49 37.459,49 L36,49 L36,45 L37.459,45 C37.896,45 38.281,44.717 38.413,44.301 C38.565,43.818 38.77,43.326 39.023,42.842 C39.225,42.454 39.152,41.981 38.843,41.672 L37.807,40.636 L40.635,37.808 L41.671,38.844 C41.98,39.154 42.453,39.226 42.841,39.024 C43.325,38.771 43.817,38.566 44.3,38.414 C44.717,38.281 45,37.896 45,37.459 L45,36 L49,36 L49,37.459 C49,37.896 49.283,38.281 49.699,38.413 C50.182,38.565 50.674,38.77 51.158,39.023 C51.546,39.225 52.018,39.153 52.328,38.843 L53.364,37.807 L56.192,40.635 L55.156,41.671 C54.847,41.98 54.774,42.453 54.976,42.841 C55.229,43.325 55.434,43.817 55.586,44.3 C55.719,44.717 56.104,45 56.541,45 L58,45 L58,49 Z M16.544,43 L20.322,36 L35.746,36 L37.314,38.301 L35.687,39.928 C35.296,40.319 35.296,40.951 35.687,41.342 L36.928,42.583 C36.866,42.722 36.809,42.86 36.754,42.999 L35,42.999 L16.544,42.999 L16.544,43 Z M12.5,48 C11.673,48 11,47.327 11,46.5 C11,45.673 11.673,45 12.5,45 L14,45 L14.868,45 L34,45 L34,48 L12.5,48 Z M43,36 L43,36.754 C42.861,36.809 42.723,36.866 42.584,36.928 L41.656,36 L43,36 Z M38.753,36.862 L38.166,36 L39.615,36 L38.753,36.862 Z M2,31 L2,28 L54,28 L54,31 C54,32.654 52.654,34 51,34 L50,34 L44,34 L36.274,34 L19.726,34 L5,34 C3.346,34 2,32.654 2,31 L2,31 Z M5,2 L51,2 C52.654,2 54,3.346 54,5 L54,26 L2,26 L2,5 C2,3.346 3.346,2 5,2 L5,2 Z M51,36 C51.579,36 52.126,35.882 52.644,35.7 L51.416,36.928 C51.277,36.866 51.139,36.809 51,36.754 L51,36 Z M59,43 L57.246,43 C57.191,42.861 57.134,42.723 57.072,42.584 L58.313,41.343 C58.704,40.952 58.704,40.32 58.313,39.929 L54.071,35.687 C53.864,35.48 53.591,35.39 53.32,35.403 C54.905,34.562 56,32.915 56,31 L56,5 C56,2.243 53.757,0 51,0 L5,0 C2.243,0 0,2.243 0,5 L0,31 C0,33.757 2.243,36 5,36 L18.05,36 L14.272,43 L14,43 L12.5,43 C10.57,43 9,44.57 9,46.5 C9,48.43 10.57,50 12.5,50 L34,50 C34,50.553 34.447,51 35,51 L36.754,51 C36.809,51.139 36.866,51.277 36.928,51.416 L35.687,52.657 C35.296,53.048 35.296,53.68 35.687,54.071 L39.929,58.313 C40.32,58.704 40.952,58.704 41.343,58.313 L42.584,57.072 C42.723,57.134 42.861,57.191 43,57.246 L43,59 C43,59.553 43.447,60 44,60 L50,60 C50.553,60 51,59.553 51,59 L51,57.246 C51.139,57.191 51.277,57.134 51.416,57.072 L52.657,58.313 C53.048,58.704 53.68,58.704 54.071,58.313 L58.313,54.071 C58.704,53.68 58.704,53.048 58.313,52.657 L57.072,51.416 C57.134,51.277 57.191,51.139 57.246,51 L59,51 C59.553,51 60,50.553 60,50 L60,44 C60,43.447 59.553,43 59,43 L59,43 Z" id="Fill-3" fill="#ED1C24"></path>
                    <path d="M47.2881356,51.0169492 C45.2316949,51.0169492 43.559322,49.3445763 43.559322,47.2881356 C43.559322,45.2316949 45.2316949,43.559322 47.2881356,43.559322 C49.3445763,43.559322 51.0169492,45.2316949 51.0169492,47.2881356 C51.0169492,49.3445763 49.3445763,51.0169492 47.2881356,51.0169492 M47.2881356,41.6949153 C44.2034746,41.6949153 41.6949153,44.2034746 41.6949153,47.2881356 C41.6949153,50.3727966 44.2034746,52.8813559 47.2881356,52.8813559 C50.3727966,52.8813559 52.8813559,50.3727966 52.8813559,47.2881356 C52.8813559,44.2034746 50.3727966,41.6949153 47.2881356,41.6949153" id="Fill-5" fill="#ED1C24"></path>
                    <path d="M18.0007694,21.3559322 L19.3219171,19.9565993 L13.4421556,13.7288754 L19.3220339,7.50115147 L18.0007694,6.10169492 L11.460434,13.0290853 C11.0951096,13.4161532 11.0951096,14.0415976 11.460434,14.4285418 L18.0007694,21.3559322 Z" id="Fill-7" fill="#ED1C24"></path>
                    <path d="M34.8805866,21.3559322 L41.4209219,14.4284857 C41.7862464,14.0415383 41.7862464,13.4160888 41.4209219,13.0291415 L34.8805866,6.10169492 L33.559322,7.50103912 L39.4390835,13.7288136 L33.559322,19.9564643 L34.8805866,21.3559322 Z" id="Fill-9" fill="#ED1C24"></path>
                    <polygon id="Fill-11" fill="#ED1C24" points="20.3389831 20.4892337 29.6703292 3.05084746 31.5254237 3.91742485 22.1940776 21.3559322"></polygon>
                    <mask id="mask-2" fill="white">
                        <use xlink:href="#path-1"></use>
                    </mask>
                    <g id="Clip-14"></g>
                    <polygon id="Fill-13" fill="#ED1C24" mask="url(#mask-2)" points="39.6610169 22.3728814 41.6949153 22.3728814 41.6949153 20.3389831 39.6610169 20.3389831"></polygon>
                    <polygon id="Fill-15" fill="#ED1C24" mask="url(#mask-2)" points="43.7288136 22.3728814 45.7627119 22.3728814 45.7627119 20.3389831 43.7288136 20.3389831"></polygon>
                    <polygon id="Fill-16" fill="#ED1C24" mask="url(#mask-2)" points="46.779661 22.3728814 48.8135593 22.3728814 48.8135593 20.3389831 46.779661 20.3389831"></polygon>
                </g>
            </g>
        </g>
    </g>
</svg>