<?xml version="1.0" encoding="UTF-8"?>
<svg width="556px" height="700px" viewBox="0 0 556 700" version="1.1" xmlns="http://www.w3.org/2000/svg" xmlns:xlink="http://www.w3.org/1999/xlink">
    <!-- Generator: Sketch 47 (45396) - http://www.bohemiancoding.com/sketch -->
    <title>Group 12</title>
    <desc>Created with Sketch.</desc>
    <defs>
        <polygon id="path-1" points="2.10075422e-14 0 700 0 700 700 0 700"></polygon>
    </defs>
    <g id="Page-1" stroke="none" stroke-width="1" fill="none" fill-rule="evenodd">
        <g id="MainePage_PrimeSource" transform="translate(-884.000000, -948.000000)">
            <g id="Group-12" transform="translate(884.000000, 948.000000)">
                <g id="Page-1">
                    <mask id="mask-2" fill="white">
                        <use xlink:href="#path-1"></use>
                    </mask>
                    <g id="Clip-2"></g>
                    <path d="M592.760531,490.157856 C523.589453,537.287293 440.014771,564.846673 349.998277,564.846673 C259.985229,564.846673 176.410547,537.287293 107.239469,490.157856 C101.007903,406.686985 118.93055,320.531177 163.937074,242.578387 C208.943598,164.622149 274.595633,106.022275 349.998277,69.6842872 C425.400921,106.022275 491.052956,164.622149 536.062926,242.578387 C581.06945,320.531177 598.992097,406.686985 592.760531,490.157856 M349.998277,0 C156.699082,0 0,156.701757 0,350 C0,543.298243 156.699082,700 349.998277,700 C543.297472,700 700,543.298243 700,350 C700,156.701757 543.297472,0 349.998277,0 M349.998277,209.831804 C317.661685,234.237503 289.581723,265.391736 268.05042,302.684445 C246.508777,339.997834 233.563111,379.91344 228.603363,420.139244 C265.910042,435.942116 306.93567,444.679363 349.998277,444.679363 C393.06433,444.679363 434.089958,435.942116 471.396637,420.139244 C466.433442,379.91344 453.491223,339.997834 431.94958,302.684445 C410.418277,265.391736 382.338315,234.237503 349.998277,209.831804" id="Fill-1" fill="#ED1C24" mask="url(#mask-2)"></path>
                </g>
            </g>
        </g>
    </g>
</svg>