<?xml version="1.0" encoding="UTF-8"?>
<svg width="53px" height="62px" viewBox="0 0 53 62" version="1.1" xmlns="http://www.w3.org/2000/svg" xmlns:xlink="http://www.w3.org/1999/xlink">
    <!-- Generator: Sketch 47 (45396) - http://www.bohemiancoding.com/sketch -->
    <title>Group 11</title>
    <desc>Created with Sketch.</desc>
    <defs>
        <polygon id="path-1" points="0 62 53 62 53 0 0 0"></polygon>
    </defs>
    <g id="Page-1" stroke="none" stroke-width="1" fill="none" fill-rule="evenodd">
        <g id="MainePage_PrimeSource" transform="translate(-180.000000, -1283.000000)">
            <g id="Group-11" transform="translate(180.000000, 1283.000000)">
                <g id="Page-1">
                    <path d="M35,42.3666667 C35.551,42.3666667 36,41.9027 36,41.3333333 C36,40.7639667 35.551,40.3 35,40.3 L17,40.3 C16.449,40.3 16,40.7639667 16,41.3333333 C16,41.9027 16.449,42.3666667 17,42.3666667 L35,42.3666667 Z M26,59.5054042 L27.585875,57.8666667 L24.414,57.8666667 L26,59.5054042 Z M32.555,48.7402667 L34,49.7353667 L34,44.4333333 L18,44.4333333 L18,49.7353667 L19.446,48.7402667 C19.782,48.5088 20.219,48.5088 20.555,48.7402667 L23,50.4246 L25.446,48.7402667 C25.782,48.5088 26.219,48.5088 26.555,48.7402667 L29,50.4246 L31.446,48.7402667 C31.782,48.5088 32.219,48.5088 32.555,48.7402667 Z M18.57,51.8268333 L22.414,55.8 L29.585875,55.8 L33.43,51.8278667 L32,50.8420667 L29.554,52.5264 C29.218,52.7578667 28.781,52.7578667 28.445,52.5264 L26,50.8420667 L23.554,52.5264 C23.218,52.7578667 22.781,52.7578667 22.445,52.5264 L20,50.8420667 L18.57,51.8268333 Z M11,17.5666667 C11,22.4336667 13.245,27.0402667 17.022,29.9666667 L22,29.9666667 L22,23.2169333 L18.498,20.2016667 C16.91,18.8345667 16,16.8257667 16,14.6919333 C16,11.7696667 18.29,9.3 21,9.3 C21.888,9.3 22.739,9.55213333 23.504,10.0202333 C25.044,9.0985 26.958,9.0985 28.497,10.0202333 C29.261,9.55213333 30.112,9.3 31,9.3 C33.71,9.3 36,11.7696667 36,14.6919333 C36,16.8257667 35.09,18.8345667 33.502,20.2006333 L30,23.2169333 L30,29.9666667 L34.978,29.9666667 C38.755,27.0402667 41,22.4336667 41,17.5666667 C41,9.01996667 34.271,2.06666667 26,2.06666667 C17.729,2.06666667 11,9.01996667 11,17.5666667 Z M28.708,13.1533 C28.701,13.1398667 28.692,13.1274667 28.686,13.1140333 C28.634,13.0076 28.564,12.9104667 28.5,12.8102333 C28.436,12.9104667 28.366,13.0076 28.314,13.1140333 C28.307,13.1274667 28.299,13.1409 28.292,13.1543333 C28.208,13.3351667 28.147,13.5253 28.099,13.7185333 C28.087,13.7650333 28.077,13.8136 28.067,13.8611333 C28.028,14.0595333 28,14.2610333 28,14.4666667 C28,14.6723 28.028,14.8738 28.067,15.0722 C28.077,15.1197333 28.087,15.1672667 28.099,15.2148 C28.147,15.4080333 28.208,15.5981667 28.292,15.779 C28.298,15.7924333 28.307,15.8058667 28.314,15.8193 C28.366,15.9257333 28.436,16.0228667 28.5,16.1231 C28.564,16.0228667 28.634,15.9257333 28.686,15.8193 C28.693,15.8058667 28.702,15.7924333 28.708,15.779 C28.792,15.5981667 28.853,15.4080333 28.901,15.2148 C28.913,15.1683 28.923,15.1197333 28.933,15.0722 C28.972,14.8738 29,14.6723 29,14.4666667 C29,14.2610333 28.972,14.0595333 28.933,13.8601 C28.923,13.8125667 28.913,13.7650333 28.901,13.7175 C28.853,13.5232333 28.792,13.3331 28.708,13.1533 Z M23.708,13.1533 C23.701,13.1398667 23.692,13.1274667 23.686,13.1140333 C23.634,13.0076 23.564,12.9104667 23.5,12.8102333 C23.436,12.9104667 23.366,13.0076 23.314,13.1140333 C23.307,13.1274667 23.299,13.1409 23.292,13.1543333 C23.208,13.3351667 23.147,13.5253 23.099,13.7185333 C23.087,13.7650333 23.077,13.8136 23.067,13.8611333 C23.028,14.0595333 23,14.2610333 23,14.4666667 C23,14.6723 23.028,14.8738 23.067,15.0722 C23.077,15.1197333 23.087,15.1672667 23.099,15.2148 C23.147,15.4080333 23.208,15.5981667 23.292,15.779 C23.298,15.7924333 23.307,15.8058667 23.314,15.8193 C23.366,15.9257333 23.436,16.0228667 23.5,16.1231 C23.564,16.0228667 23.634,15.9257333 23.686,15.8193 C23.693,15.8058667 23.702,15.7924333 23.708,15.779 C23.792,15.5981667 23.853,15.4080333 23.901,15.2148 C23.913,15.1683 23.923,15.1197333 23.933,15.0722 C23.972,14.8738 24,14.6723 24,14.4666667 C24,14.2610333 23.972,14.0595333 23.933,13.8601 C23.923,13.8125667 23.913,13.7650333 23.901,13.7175 C23.853,13.5232333 23.792,13.3331 23.708,13.1533 Z M23.64,21.9397333 C23.868,22.1360667 24,22.4264333 24,22.7333333 L24,29.9666667 L28,29.9666667 L28,22.7333333 C28,22.4264333 28.132,22.1360667 28.36,21.9397333 L32.222,18.6134333 C33.352,17.6410667 34,16.2109333 34,14.6919333 C34,12.9197667 32.598,11.3666667 31,11.3666667 C30.688,11.3666667 30.384,11.4183333 30.091,11.5185667 C30.111,11.5475 30.125,11.5795333 30.144,11.6095 C30.248,11.7696667 30.344,11.9339667 30.43,12.1044667 C30.45,12.1427 30.473,12.1788667 30.491,12.2181333 C30.59,12.4258333 30.673,12.6407667 30.744,12.8608667 C30.763,12.9177 30.777,12.9755667 30.793,13.0334333 C30.843,13.206 30.883,13.3816667 30.914,13.5594 C30.926,13.6265667 30.938,13.6916667 30.947,13.7588333 C30.978,13.9923667 31,14.2279667 31,14.4666667 C31,16.0197667 30.318,17.4809 29.128,18.4729 C28.945,18.6258333 28.722,18.7023 28.5,18.7023 C28.278,18.7023 28.055,18.6258333 27.872,18.4729 C26.682,17.4809 26,16.0197667 26,14.4666667 C26,14.2279667 26.022,13.9923667 26.055,13.7588333 C26.064,13.6916667 26.076,13.6255333 26.088,13.5594 C26.12,13.3816667 26.16,13.206 26.209,13.0334333 C26.225,12.9755667 26.239,12.9177 26.257,12.8608667 C26.327,12.6418 26.411,12.4258333 26.51,12.2181333 C26.528,12.1799 26.55,12.1447667 26.569,12.1075667 C26.657,11.935 26.754,11.7686333 26.86,11.6064 C26.878,11.5785 26.891,11.5475 26.91,11.5196 C26.325,11.3191333 25.677,11.3191333 25.092,11.5196 C25.111,11.5475 25.124,11.5785 25.142,11.6064 C25.248,11.7676 25.346,11.935 25.433,12.1075667 C25.452,12.1458 25.474,12.1809333 25.492,12.2181333 C25.591,12.4258333 25.674,12.6407667 25.745,12.8608667 C25.763,12.9177 25.777,12.9755667 25.793,13.0334333 C25.843,13.206 25.883,13.3816667 25.914,13.5594 C25.926,13.6265667 25.938,13.6916667 25.947,13.7588333 C25.978,13.9923667 26,14.2279667 26,14.4666667 C26,16.0197667 25.318,17.4809 24.128,18.4729 C23.945,18.6258333 23.722,18.7023 23.5,18.7023 C23.278,18.7023 23.055,18.6258333 22.872,18.4729 C21.682,17.4809 21,16.0197667 21,14.4666667 C21,14.2279667 21.022,13.9923667 21.052,13.7588333 C21.061,13.6916667 21.073,13.6255333 21.085,13.5594 C21.117,13.3816667 21.157,13.206 21.206,13.0334333 C21.223,12.9766 21.237,12.9177 21.255,12.8608667 C21.326,12.6407667 21.409,12.4258333 21.508,12.2181333 C21.527,12.1788667 21.55,12.1427 21.569,12.1044667 C21.655,11.9339667 21.75,11.7696667 21.855,11.6095 C21.874,11.5805667 21.888,11.5475 21.908,11.5185667 C21.616,11.4183333 21.311,11.3666667 21,11.3666667 C19.402,11.3666667 18,12.9197667 18,14.6919333 C18,16.2109333 18.648,17.6400333 19.778,18.6134333 L23.64,21.9397333 Z M16,33.0666667 C16,33.6360333 16.449,34.1 17,34.1 L35,34.1 C35.551,34.1 36,33.6360333 36,33.0666667 C36,32.4993667 35.555,32.0395333 35.008,32.0354 L34.996,32.0333333 L17,32.0333333 C16.449,32.0333333 16,32.4973 16,33.0666667 Z M16,37.2 C16,37.7693667 16.449,38.2333333 17,38.2333333 L35,38.2333333 C35.551,38.2333333 36,37.7693667 36,37.2 C36,36.6306333 35.551,36.1666667 35,36.1666667 L17,36.1666667 C16.449,36.1666667 16,36.6306333 16,37.2 Z M38,41.3333333 C38,42.6787333 37.161,43.8154 36,44.2432 L36,51.6666667 C36,51.9446333 35.89,52.204 35.705,52.3951667 L35.707,52.3972333 L26.707,61.6972333 C26.512,61.8987333 26.256,62 26,62 C25.744,62 25.488,61.8987333 25.293,61.6972333 L16.293,52.3972333 L16.295,52.3951667 C16.11,52.204 16,51.9446333 16,51.6666667 L16,44.2432 C14.839,43.8154 14,42.6787333 14,41.3333333 C14,40.5366333 14.3,39.8164 14.78,39.2666667 C14.301,38.7169333 14,37.9967 14,37.2 C14,36.4033 14.3,35.6830667 14.78,35.1333333 C14.301,34.5836 14,33.8633667 14,33.0666667 C14,32.1976333 14.35,31.4143667 14.909,30.8501667 C11.187,27.528 9,22.6765 9,17.5666667 C9,7.8802 16.626,0 26,0 C35.374,0 43,7.8802 43,17.5666667 C43,22.6765 40.813,27.528 37.091,30.8501667 C37.65,31.4143667 38,32.1976333 38,33.0666667 C38,33.8633667 37.7,34.5836 37.22,35.1333333 C37.699,35.6830667 38,36.4033 38,37.2 C38,37.9967 37.7,38.7169333 37.22,39.2666667 C37.699,39.8164 38,40.5366333 38,41.3333333 Z" id="Fill-1" fill="#ED1C24"></path>
                    <polygon id="Fill-3" fill="#ED1C24" points="42 3.7545991 45.6940411 0 47 1.32736811 43.3059589 5.08196721"></polygon>
                    <polygon id="Fill-5" fill="#ED1C24" points="42 30.8027779 43.3059589 29.4754098 47 33.2300089 45.6940411 34.557377"></polygon>
                    <mask id="mask-2" fill="white">
                        <use xlink:href="#path-1"></use>
                    </mask>
                    <g id="Clip-8"></g>
                    <polygon id="Fill-7" fill="#ED1C24" mask="url(#mask-2)" points="47 18.295082 53 18.295082 53 16.2622951 47 16.2622951"></polygon>
                    <polygon id="Fill-9" fill="#ED1C24" mask="url(#mask-2)" points="5 1.32736811 6.30604424 0 10 3.7545991 8.6940712 5.08196721"></polygon>
                    <polygon id="Fill-10" fill="#ED1C24" mask="url(#mask-2)" points="5 33.2300089 8.69395576 29.4754098 10 30.8027779 6.3059288 34.557377"></polygon>
                    <polygon id="Fill-11" fill="#ED1C24" mask="url(#mask-2)" points="0 18.295082 6 18.295082 6 16.2622951 0 16.2622951"></polygon>
                    <polygon id="Fill-12" fill="#ED1C24" mask="url(#mask-2)" points="39 50.8196721 41 50.8196721 41 48.7868852 39 48.7868852"></polygon>
                    <polygon id="Fill-13" fill="#ED1C24" mask="url(#mask-2)" points="43 50.8196721 45 50.8196721 45 48.7868852 43 48.7868852"></polygon>
                    <polygon id="Fill-14" fill="#ED1C24" mask="url(#mask-2)" points="47 50.8196721 49 50.8196721 49 48.7868852 47 48.7868852"></polygon>
                    <polygon id="Fill-15" fill="#ED1C24" mask="url(#mask-2)" points="4 50.8196721 6 50.8196721 6 48.7868852 4 48.7868852"></polygon>
                    <polygon id="Fill-16" fill="#ED1C24" mask="url(#mask-2)" points="8 50.8196721 10 50.8196721 10 48.7868852 8 48.7868852"></polygon>
                    <polygon id="Fill-17" fill="#ED1C24" mask="url(#mask-2)" points="12 50.8196721 14 50.8196721 14 48.7868852 12 48.7868852"></polygon>
                </g>
            </g>
        </g>
    </g>
</svg>