<?xml version="1.0" encoding="UTF-8"?>
<svg width="54px" height="54px" viewBox="0 0 54 54" version="1.1" xmlns="http://www.w3.org/2000/svg" xmlns:xlink="http://www.w3.org/1999/xlink">
    <!-- Generator: Sketch 47 (45396) - http://www.bohemiancoding.com/sketch -->
    <title>Page 1</title>
    <desc>Created with Sketch.</desc>
    <defs>
        <polygon id="path-1" points="53.9816949 53.9927008 53.9816949 54 -9.31736242e-21 54 -9.31736242e-21 0.0109830508 53.9816949 0.0109830508 53.9816949 53.9927008 -6.45905417e-06 53.9927008 -6.45905417e-06 -6.45905417e-06 53.9995936 -6.45905417e-06 53.9995936 53.9927008"></polygon>
    </defs>
    <g id="Page-1" stroke="none" stroke-width="1" fill="none" fill-rule="evenodd">
        <g id="MainePage_PrimeSource" transform="translate(-88.000000, -4011.000000)">
            <g id="Page-1" transform="translate(115.000000, 4038.000000) rotate(-90.000000) translate(-115.000000, -4038.000000) translate(88.000000, 4011.000000)">
                <g id="Group-13">
                    <g id="Group-3">
                        <mask id="mask-2" fill="white">
                            <use xlink:href="#path-1"></use>
                        </mask>
                        <g id="Clip-2"></g>
                    </g>
                    <g id="Group-8" fill="#FFFFFF">
                        <path d="M52.4180059,17.9385483 C49.9976161,11.1491924 45.0781246,5.70869237 38.5658619,2.61879407 C32.0535992,-0.471104237 24.7279042,-0.839265254 17.9385483,1.58112458 C11.1494212,4.00151441 5.70777712,8.92100593 2.61879407,15.4332686 C-0.471104237,21.9455314 -0.839265254,29.2709975 1.58112458,36.0612686 C1.78499746,36.6323873 2.41331949,36.9300737 2.98443814,36.7271161 C3.55555678,36.523472 3.85415847,35.89515 3.65028559,35.3240314 C1.42644661,29.0870314 1.76531949,22.3576246 4.60306525,16.3743788 C7.44103983,10.3922771 12.4390144,5.87320932 18.6760144,3.65028559 C24.9130144,1.42644661 31.6424212,1.76509068 37.6247517,4.60306525 C43.6068534,7.44081102 48.1259212,12.4390144 50.3497602,18.6760144 C52.5726839,24.9130144 52.2347263,31.6424212 49.3960653,37.6245229 C46.5583195,43.6068534 41.5610314,48.1259212 35.3240314,50.3497602 C28.3335483,52.8415398 20.6646331,52.0871415 14.2848534,48.2805992 C13.7636161,47.9694127 13.0897602,48.1391924 12.7788025,48.6604297 C12.4676161,49.1812093 12.638311,49.8552941 13.1595483,50.1664805 C17.4067856,52.7012771 22.1789212,53.9927008 26.9865229,53.9927008 C30.0388958,53.9927008 33.1065992,53.4714636 36.0614975,52.4186924 C42.8506246,49.9983025 48.2913534,45.078811 51.3812517,38.5665483 C54.4702347,32.0535992 54.839311,24.7279042 52.4180059,17.9385483" id="Fill-1"></path>
                        <path d="M39.0815619,27.0000229 C39.0815619,26.3929805 38.5891551,25.901489 37.983028,25.901489 L10.6290534,25.901489 C10.0231551,25.901489 9.53143475,26.3929805 9.53143475,27.0000229 C9.53143475,27.6056924 10.0231551,28.098328 10.6290534,28.098328 L37.983028,28.098328 C38.5891551,28.098328 39.0815619,27.6056924 39.0815619,27.0000229" id="Fill-4"></path>
                        <path d="M30.3285508,38.4880881 C29.8995254,38.9161983 29.8995254,39.6115627 30.3285508,40.0405881 C30.5429492,40.2549864 30.8246186,40.3620712 31.1053729,40.3620712 C31.3868136,40.3620712 31.6675678,40.2549864 31.8819661,40.0405881 L44.1468305,27.776639 C44.5756271,27.3476136 44.5756271,26.6522492 44.1468305,26.2232237 L31.8819661,13.9585881 C31.4529407,13.5295627 30.7575763,13.5295627 30.3285508,13.9585881 C29.8995254,14.3876136 29.8995254,15.082978 30.3285508,15.5120034 L41.8165932,27.0000458 L30.3285508,38.4880881 Z" id="Fill-6"></path>
                    </g>
                </g>
            </g>
        </g>
    </g>
</svg>