<?xml version="1.0" encoding="UTF-8"?>
<svg width="220px" height="70px" viewBox="0 0 220 70" version="1.1" xmlns="http://www.w3.org/2000/svg" xmlns:xlink="http://www.w3.org/1999/xlink">
    <!-- Generator: Sketch 47 (45396) - http://www.bohemiancoding.com/sketch -->
    <title>Group 20</title>
    <desc>Created with Sketch.</desc>
    <defs></defs>
    <g id="Page-1" stroke="none" stroke-width="1" fill="none" fill-rule="evenodd">
        <g id="MainePage_PrimeSource" transform="translate(-180.000000, -40.000000)" fill="#ED1C24">
            <g id="Group-20" transform="translate(180.000000, 40.000000)">
                <g id="Page-1">
                    <path d="M110.206941,17.3347822 C109.704971,16.9448349 109.043057,16.7500694 108.219944,16.7500694 L104.908282,16.7500694 L104.908282,21.399889 L108.250012,21.399889 C109.052662,21.399889 109.704971,21.1947193 110.206941,20.7852122 C110.708492,20.3748728 110.959477,19.800148 110.959477,19.0602053 C110.959477,18.2998705 110.708492,17.7247295 110.206941,17.3347822 Z M113.533636,14.710025 C114.827815,15.8499029 115.475113,17.2998243 115.475113,19.0602053 C115.475113,20.900074 114.837838,22.3649773 113.563704,23.4549154 C112.289153,24.5448534 110.608265,25.0900305 108.521042,25.0900305 L104.908282,25.0900305 L104.908282,31 L100.542986,31 L100.542986,13 L108.521042,13 C110.568175,13 112.238622,13.570147 113.533636,14.710025 Z" id="Fill-1"></path>
                    <path d="M131.299211,17.3347822 C130.787917,16.9448349 130.112719,16.7500694 129.273617,16.7500694 L125.897628,16.7500694 L125.897628,21.399889 L129.304269,21.399889 C130.12251,21.399889 130.787917,21.1947193 131.299211,20.7852122 C131.810505,20.3748728 132.066365,19.800148 132.066365,19.0602053 C132.066365,18.2998705 131.810505,17.7247295 131.299211,17.3347822 L131.299211,17.3347822 Z M129.580564,13 C131.667462,13 133.370783,13.570147 134.690526,14.710025 C136.009844,15.8499029 136.669716,17.2998243 136.669716,19.0602053 C136.669716,20.2799871 136.367878,21.3549431 135.764201,22.2850735 C135.160951,23.2147878 134.317166,23.9201887 133.232422,24.4000277 L133.232422,24.7300472 L137.375566,30.6999445 L137.375566,31 L132.312008,31 L128.475811,25.0900305 L125.897628,25.0900305 L125.897628,31 L121.447964,31 L121.447964,13 L129.580564,13 Z" id="Fill-3"></path>
                    <polygon id="Fill-5" points="142.352941 31 146.334842 31 146.334842 13 142.352941 13"></polygon>
                    <polygon id="Fill-7" points="167.737693 21.0698696 163.724266 26.2299084 161.827167 26.2299084 157.782669 21.0399057 157.782669 31 153.303167 31 153.333808 13 156.973942 13 162.760181 20.7098862 168.54642 13 172.186554 13 172.217195 31 167.737693 31"></polygon>
                    <polygon id="Fill-8" points="189.735859 23.5901692 182.493889 23.5901692 182.493889 27.2503468 191.131222 27.2503468 191.131222 31 178.190045 31 178.190045 13 191.131222 13 191.131222 16.7500694 182.493889 16.7500694 182.493889 20.1701193 189.735859 20.1701193"></polygon>
                    <path d="M101.994873,51.2027833 C102.201147,51.3244621 102.474891,51.4861391 102.815673,51.6882354 C103.156456,51.8907528 103.781296,52.153478 104.689763,52.4776741 C105.59909,52.8014492 106.425048,52.9631263 107.168066,52.9631263 C108.531626,52.9631263 109.212762,52.4570435 109.212762,51.4457199 C109.212762,50.9598467 109.00133,50.5653378 108.577608,50.2617723 C108.154745,49.9582068 107.303004,49.6243269 106.021953,49.2601325 C103.956629,48.6736322 102.418165,47.9498748 101.40656,47.0901234 C100.394096,46.229951 99.8887238,45.0817914 99.8887238,43.6452235 C99.8887238,41.9252997 100.492506,40.5544131 101.700502,39.5329847 C102.908927,38.5107142 104.700507,38 107.075242,38 C108.562567,38 109.88917,38.161677 111.05634,38.4854522 C112.223081,38.8092273 113.01337,39.1330024 113.426349,39.4571986 L114.076543,39.9426507 L111.660123,43.5239657 C111.515731,43.4022869 111.309027,43.2608195 111.04087,43.0991424 C110.772283,42.9370443 110.240697,42.7143174 109.44525,42.4313825 C108.650234,42.1480267 107.859945,42.0061382 107.075242,42.0061382 C105.732739,42.0061382 105.061917,42.4515922 105.061917,43.342079 C105.061917,43.7871119 105.268191,44.1310967 105.68117,44.3736122 C106.094579,44.6165489 106.868968,44.8999047 108.004767,45.2236798 C110.173228,45.8101802 111.794631,46.5486737 112.868548,47.4395816 C113.942465,48.3296474 114.479638,49.5030691 114.479638,50.9598467 C114.479638,52.7201897 113.870269,54.1672834 112.65153,55.2998648 C111.433221,56.4332883 109.656682,57 107.323201,57 C105.795051,57 104.385079,56.7974827 103.094574,56.392869 C101.804069,55.9882554 100.890015,55.5832207 100.353271,55.178607 L99.5475113,54.5714761 L101.994873,51.2027833 Z" id="Fill-9"></path>
                    <path d="M131.372451,51.2728439 C132.304395,50.3030444 132.769515,49.0402451 132.769515,47.4848666 C132.769515,45.929488 132.304395,44.6666888 131.372451,43.6968892 C130.440933,42.7270897 129.279411,42.2424001 127.887459,42.2424001 C126.516377,42.2424001 125.369763,42.7270897 124.448893,43.6968892 C123.527598,44.6666888 123.067163,45.929488 123.067163,47.4848666 C123.067163,49.0402451 123.527598,50.3030444 124.448893,51.2728439 C125.369763,52.2426435 126.516377,52.7273331 127.887459,52.7273331 C129.279837,52.7273331 130.440933,52.2426435 131.372451,51.2728439 M121.117237,54.2272224 C119.347055,52.3788442 118.461538,50.1315324 118.461538,47.4848666 C118.461538,44.8382008 119.347055,42.5959334 121.117237,40.7572238 C122.887845,38.9189345 125.14487,38 127.887459,38 C130.651345,38 132.923703,38.9189345 134.703681,40.7572238 C136.484938,42.5959334 137.375566,44.8382008 137.375566,47.4848666 C137.375566,50.1315324 136.484938,52.3788442 134.703681,54.2272224 C132.923703,56.0760211 130.651345,57 127.887459,57 C125.14487,57 122.887845,56.0760211 121.117237,54.2272224" id="Fill-10"></path>
                    <path d="M145.533784,54.6020876 C144.076872,53.0030501 143.348416,50.9867604 143.348416,48.5523599 L143.348416,38 L147.689249,38 L147.689249,48.5523599 C147.689249,49.7693455 147.999072,50.7545243 148.61747,51.5078963 C149.236284,52.2604098 150.134602,52.6368812 151.31201,52.6368812 C152.509767,52.6368812 153.413069,52.2604098 154.0215,51.5078963 C154.630346,50.7545243 154.93477,49.7693455 154.93477,48.5523599 L154.93477,38 L159.276018,38 L159.276018,48.5523599 C159.276018,51.0069361 158.557114,53.0288064 157.120137,54.6175414 C155.68316,56.2058471 153.746979,57 151.31201,57 C148.91691,57 146.991111,56.2011251 145.533784,54.6020876" id="Fill-11"></path>
                    <path d="M175.100116,42.3350981 C174.588822,41.9451599 173.913624,41.7499827 173.074522,41.7499827 L169.698959,41.7499827 L169.698959,46.400111 L173.105174,46.400111 C173.923841,46.400111 174.588822,46.194946 175.100116,45.7850323 C175.611836,45.3751185 175.867696,44.7999908 175.867696,44.0604814 C175.867696,43.3001642 175.611836,42.7250364 175.100116,42.3350981 L175.100116,42.3350981 Z M173.381895,38 C175.468367,38 177.171687,38.57055 178.491431,39.7099854 C179.810749,40.8502532 180.470621,42.300141 180.470621,44.0604814 C180.470621,45.2802349 180.169208,46.3551661 179.565532,47.285275 C178.961856,48.2149677 178.118071,48.9203523 177.033753,49.4001803 L177.033753,49.7301921 L181.176471,55.6999514 L181.176471,56 L176.112913,56 L172.276716,50.0901672 L169.698959,50.0901672 L169.698959,56 L165.248869,56 L165.248869,38 L173.381895,38 Z" id="Fill-12"></path>
                    <path d="M201.085973,54.7577326 L200.838374,54.9998673 C200.735207,55.101177 200.492336,55.282778 200.110191,55.5455109 C199.728045,55.8082437 199.309362,56.0356653 198.855429,56.2273552 C198.400638,56.4194655 197.801413,56.5960219 197.057755,56.757445 C196.313667,56.9197088 195.53949,57 194.733932,57 C191.820771,57 189.496948,56.0911545 187.761603,54.2730431 C186.026258,52.4545113 185.158371,50.192066 185.158371,47.4848666 C185.158371,44.7982654 186.026258,42.5454887 187.761603,40.7273773 C189.496948,38.9088455 191.820771,38 194.733932,38 C196.035118,38 197.212934,38.1866454 198.266091,38.5603567 C199.320108,38.9340679 200.053449,39.3027346 200.466545,39.6667773 L201.085973,40.2120005 L198.514121,43.5758219 C198.431587,43.4745121 198.297471,43.3484004 198.111342,43.1970662 C197.925212,43.0453117 197.512547,42.8435329 196.871626,42.590889 C196.231564,42.3382451 195.53949,42.2121333 194.795832,42.2121333 C193.32872,42.2121333 192.1307,42.6968229 191.201343,43.6666224 C190.271555,44.636422 189.806877,45.9093101 189.806877,47.4848666 C189.806877,49.0608434 190.271555,50.3333112 191.201343,51.3031108 C192.1307,52.2729103 193.32872,52.7575999 194.795832,52.7575999 C195.53949,52.7575999 196.221247,52.6466215 196.840676,52.4242444 C197.460534,52.2018673 197.894263,51.9698217 198.142292,51.7272667 L198.514121,51.3939112 L201.085973,54.7577326 Z" id="Fill-13"></path>
                    <polygon id="Fill-14" points="217.609162 48.5899244 210.367192 48.5899244 210.367192 52.2500173 219.004525 52.2500173 219.004525 56 206.063348 56 206.063348 38 219.004525 38 219.004525 41.7499827 210.367192 41.7499827 210.367192 45.1699535 217.609162 45.1699535"></polygon>
                    <path d="M61.2127071,6.47128815 C59.5416227,6.47128815 58.2823012,5.14266828 58.2823012,3.51830775 C58.2823012,1.87543829 59.5512359,0.529114215 61.2307318,0.529114215 C62.9018162,0.529114215 64.1615382,1.85733172 64.1615382,3.48209461 C64.1615382,5.12456171 62.8926036,6.47128815 61.2127071,6.47128815 L61.2127071,6.47128815 Z M61.2315329,0 C59.2776619,0 57.7375566,1.59539001 57.7375566,3.50020118 C57.7375566,5.42392366 59.2584356,7 61.2123066,7 C63.1661776,7 64.7058824,5.40460999 64.7058824,3.50020118 C64.7058824,1.57607634 63.1854038,0 61.2315329,0 L61.2315329,0 Z M60.4444569,3.3746623 L60.4444569,2.18968788 L61.4185886,2.18968788 C61.8916352,2.18968788 62.1776262,2.41420935 62.1776262,2.7642697 C62.1776262,3.15899293 61.8559865,3.3746623 61.3913513,3.3746623 L60.4444569,3.3746623 Z M62.6871227,2.75501523 C62.6871227,2.46772432 62.5797759,2.24360522 62.4191564,2.09070529 C62.2048634,1.87543829 61.8559865,1.74064494 61.4366132,1.74064494 L59.9525845,1.74064494 L59.9525845,5.07104673 L60.4444569,5.07104673 L60.4444569,3.8140484 L61.2751926,3.8140484 L62.2493242,5.07104673 L62.8569548,5.07104673 L61.8291498,3.73357475 C62.3298343,3.61688797 62.6871227,3.29378628 62.6871227,2.75501523 L62.6871227,2.75501523 Z" id="Fill-15"></path>
                    <path d="M59.0078498,49.015968 C52.1221989,53.7290744 43.802563,56.4850398 34.841629,56.4850398 C25.8811154,56.4850398 17.561059,53.7290744 10.6749876,49.015968 C10.0551361,40.6690766 11.8389965,32.0535165 16.3192533,24.2579026 C20.7999306,16.4622886 27.335706,10.6022715 34.841629,6.96848636 C42.3479724,10.6022715 48.8833273,16.4622886 53.3635841,24.2579026 C57.8438409,32.0535165 59.6285424,40.6690766 59.0078498,49.015968 M34.841629,0 C15.5988967,0 0,15.6702232 0,35 C0,54.3301993 15.5988967,70 34.841629,70 C54.0843613,70 69.6832579,54.3301993 69.6832579,35 C69.6832579,15.6702232 54.0843613,0 34.841629,0 M34.841629,20.9831871 C31.622522,23.4235936 28.8268821,26.5390511 26.6838947,30.268729 C24.5392251,34.0000966 23.2511618,37.9912616 22.7570467,42.0141093 C26.4706893,43.5944383 30.554813,44.4680337 34.841629,44.4680337 C39.1288655,44.4680337 43.2125686,43.5944383 46.9266317,42.0141093 C46.4325167,37.9912616 45.1440328,34.0000966 42.9997838,30.268729 C40.8563758,26.5390511 38.0607359,23.4235936 34.841629,20.9831871" id="Fill-16"></path>
                </g>
            </g>
        </g>
    </g>
</svg>