
<svg width="50px" height="50px" viewBox="0 0 50 50" version="1.1" xmlns="http://www.w3.org/2000/svg" xmlns:xlink="http://www.w3.org/1999/xlink">
    <!-- Generator: Sketch 47 (45396) - http://www.bohemiancoding.com/sketch -->
    <desc>Created with Sketch.</desc>
    <defs></defs>
    <g id="Page-1" stroke="none" stroke-width="1" fill="none" fill-rule="evenodd">
        <g id="Vakansii" transform="translate(-190.000000, -47.000000)">
            <g id="Group-2" transform="translate(190.000000, 46.000000)">
                <path d="M49.0078498,43.015968 C42.1221989,47.7290744 33.802563,50.4850398 24.841629,50.4850398 C15.8811154,50.4850398 7.56105905,47.7290744 0.674987642,43.015968 C0.0551360849,34.6690766 1.83899654,26.0535165 6.31925332,18.2579026 C10.7999306,10.4622886 17.335706,4.60227149 24.841629,0.968486355 C32.3479724,4.60227149 38.8833273,10.4622886 43.3635841,18.2579026 C47.8438409,26.0535165 49.6285424,34.6690766 49.0078498,43.015968" id="Path" fill="#FFFFFF"></path>
                <path d="M24.841629,14.9831871 C21.622522,17.4235936 18.8268821,20.5390511 16.6838947,24.268729 C14.5392251,28.0000966 13.2511618,31.9912616 12.7570467,36.0141093 C16.4706893,37.5944383 20.554813,38.4680337 24.841629,38.4680337 C29.1288655,38.4680337 33.2125686,37.5944383 36.9266317,36.0141093 C36.4325167,31.9912616 35.1440328,28.0000966 32.9997838,24.268729 C30.8563758,20.5390511 28.0607359,17.4235936 24.841629,14.9831871" id="Path" fill="#ED1C24"></path>
            </g>
        </g>
    </g>
</svg>