<?xml version="1.0" encoding="UTF-8"?>
<svg width="212px" height="173px" viewBox="0 0 212 173" version="1.1" xmlns="http://www.w3.org/2000/svg" xmlns:xlink="http://www.w3.org/1999/xlink">
    <!-- Generator: Sketch 47 (45396) - http://www.bohemiancoding.com/sketch -->
    <title>10</title>
    <desc>Created with Sketch.</desc>
    <defs></defs>
    <g id="Page-1" stroke="none" stroke-width="1" fill="none" fill-rule="evenodd">
        <g id="MainePage_PrimeSource" transform="translate(-462.000000, -2740.000000)" fill="#E11A1A">
            <path d="M540,2912 L500.650746,2912 L500.650746,2787.10714 L462,2798.36607 L462,2768.65179 L536.391045,2743 L540,2743 L540,2912 Z M674,2841.88035 C674,2864.62333 668.908918,2882.16215 658.726601,2894.49733 C648.544284,2906.8325 634.193196,2913 615.672906,2913 C596.998921,2913 582.551775,2906.79396 572.331034,2894.38168 C562.110294,2881.96941 557,2864.46914 557,2841.88035 L557,2811.11965 C557,2788.37667 562.091082,2770.83785 572.273399,2758.50267 C582.455716,2746.1675 596.845227,2740 615.442365,2740 C634.039502,2740 648.448225,2746.20604 658.668966,2758.61832 C668.889706,2771.03059 674,2788.56941 674,2811.23529 L674,2841.88035 Z M634,2806.12295 C634,2794.00472 632.432369,2784.95478 629.297059,2778.97285 C626.161749,2772.99092 621.191211,2770 614.385294,2770 C607.73232,2770 602.895603,2772.77866 599.875,2778.33607 C596.854397,2783.89347 595.229413,2792.30664 595,2803.57582 L595,2846.64549 C595,2859.22684 596.567631,2868.43115 599.702941,2874.25871 C602.838251,2880.08627 607.808789,2883 614.614706,2883 C621.191209,2883 626.047043,2880.16345 629.182353,2874.49027 C632.317663,2868.81708 633.923529,2859.92151 634,2847.80328 L634,2806.12295 Z" id="10"></path>
        </g>
    </g>
</svg>