<?xml version="1.0" encoding="UTF-8"?>
<svg width="36px" height="36px" viewBox="0 0 36 36" version="1.1" xmlns="http://www.w3.org/2000/svg" xmlns:xlink="http://www.w3.org/1999/xlink">
    <!-- Generator: Sketch 47 (45396) - http://www.bohemiancoding.com/sketch -->
    <title>Page 1</title>
    <desc>Created with Sketch.</desc>
    <defs></defs>
    <g id="Page-1" stroke="none" stroke-width="1" fill="none" fill-rule="evenodd" opacity="0.2">
        <g id="Menu_01" transform="translate(-838.000000, -4218.000000)" fill="#000000">
            <path d="M860.26375,4230.43875 L857.558125,4230.43875 C857.2375,4230.43875 856.879375,4230.86062 856.879375,4231.42125 L856.879375,4233.375 L860.265625,4233.375 L859.75375,4236.16125 L856.879375,4236.16125 L856.879375,4244.52563 L853.68625,4244.52563 L853.68625,4236.16125 L850.789375,4236.16125 L850.789375,4233.375 L853.68625,4233.375 L853.68625,4231.73625 C853.68625,4229.385 855.3175,4227.47437 857.558125,4227.47437 L860.26375,4227.47437 L860.26375,4230.43875 Z M856,4218 C846.05875,4218 838,4226.05875 838,4236 C838,4245.94125 846.05875,4253.99813 856,4253.99813 C865.939375,4253.99813 873.998125,4245.94125 873.998125,4236 C873.998125,4226.05875 865.939375,4218 856,4218 L856,4218 Z" id="Page-1"></path>
        </g>
    </g>
</svg>