<?xml version="1.0" encoding="UTF-8"?>
<svg width="35px" height="36px" viewBox="0 0 35 36" version="1.1" xmlns="http://www.w3.org/2000/svg" xmlns:xlink="http://www.w3.org/1999/xlink">
    <!-- Generator: Sketch 47 (45396) - http://www.bohemiancoding.com/sketch -->
    <title>Page 1</title>
    <desc>Created with Sketch.</desc>
    <defs>
        <polygon id="path-1" points="34.56 0.447980952 34.56 35.1904762 0.00054 35.1904762 0.00054 0.447980952"></polygon>
    </defs>
    <g id="Page-1" stroke="none" stroke-width="1" fill="none" fill-rule="evenodd" opacity="0.2">
        <g id="Menu_01" transform="translate(-894.000000, -4219.000000)">
            <g id="Page-1" transform="translate(894.000000, 4219.000000)">
                <path d="M22.08348,14.4366857 C21.48768,14.4366857 21.00348,13.9499238 21.00348,13.3509714 C21.00348,12.752019 21.48768,12.2652571 22.08348,12.2652571 C22.68108,12.2652571 23.16528,12.752019 23.16528,13.3509714 C23.16528,13.9499238 22.68108,14.4366857 22.08348,14.4366857 M17.28108,22.8274476 C14.72868,22.8274476 12.65868,20.7464952 12.65868,18.1805905 C12.65868,15.6146857 14.72868,13.5337333 17.28108,13.5337333 C19.83168,13.5337333 21.90168,15.6146857 21.90168,18.1805905 C21.90168,20.7464952 19.83168,22.8274476 17.28108,22.8274476 M24.29568,12.8461143 C23.99328,12.0571619 23.37408,11.4328762 22.58748,11.1270667 C22.05288,10.928019 21.48768,10.8230667 20.91708,10.8176381 C19.96668,10.7724 19.68408,10.7633524 17.28108,10.7633524 C14.87808,10.7633524 14.59188,10.7724 13.64328,10.8176381 C13.07268,10.8230667 12.50748,10.928019 11.97108,11.1270667 C11.18628,11.4328762 10.56708,12.0553524 10.26468,12.8443048 C10.06488,13.3817333 9.96048,13.9517333 9.95508,14.5253524 C9.91008,15.4789714 9.90108,15.7648762 9.90108,18.1805905 C9.90108,20.5963048 9.91008,20.8822095 9.95508,21.8358286 C9.96048,22.4112571 10.06488,22.9794476 10.26468,23.5168762 C10.56708,24.3076381 11.18628,24.9283048 11.97108,25.2341143 C12.50748,25.4349714 13.07268,25.5381143 13.64328,25.5453524 C14.59188,25.5905905 14.87628,25.5978286 17.28108,25.5978286 C19.68408,25.5978286 19.96848,25.5905905 20.91708,25.5453524 C21.48768,25.5381143 22.05288,25.4349714 22.58748,25.2341143 C23.37408,24.9283048 23.99328,24.3076381 24.29568,23.5168762 C24.49548,22.9794476 24.59808,22.4112571 24.60528,21.8358286 C24.65028,20.8822095 24.65928,20.5963048 24.65928,18.1805905 C24.65928,15.7648762 24.65028,15.4789714 24.60528,14.5253524 C24.59808,13.9517333 24.49548,13.3817333 24.29568,12.8461143" id="Fill-1" fill="#000000"></path>
                <path d="M17.28018,15.1646571 C18.93618,15.1646571 20.28078,16.5163714 20.28078,18.1811333 C20.28078,19.8458952 18.93618,21.1958 17.28018,21.1958 C15.62418,21.1958 14.27958,19.8458952 14.27958,18.1811333 C14.27958,16.5163714 15.62418,15.1646571 17.28018,15.1646571" id="Fill-3" fill="#000000"></path>
                <g id="Group-7" transform="translate(0.000000, 0.361905)">
                    <mask id="mask-2" fill="white">
                        <use xlink:href="#path-1"></use>
                    </mask>
                    <g id="Clip-6"></g>
                    <path d="M26.22654,21.5488381 C26.21034,22.2997905 26.06994,23.0416952 25.80894,23.7456 C25.34094,24.9616 24.38514,25.9224571 23.17554,26.3929333 C22.47534,26.6553143 21.73734,26.7964571 20.99034,26.8127429 C20.03094,26.857981 19.72494,26.865219 17.28054,26.865219 C14.83614,26.865219 14.52834,26.857981 13.56894,26.8127429 C12.82194,26.7964571 12.08394,26.6553143 11.38374,26.3929333 C10.17594,25.9224571 9.22014,24.9616 8.75214,23.7456 C8.48934,23.0416952 8.34894,22.2997905 8.33454,21.5488381 C8.29134,20.5843619 8.28054,20.2767429 8.28054,17.8194095 C8.28054,15.3620762 8.29134,15.0544571 8.33454,14.0881714 C8.34894,13.337219 8.48934,12.5953143 8.75214,11.893219 C9.22014,10.677219 10.17594,9.7163619 11.38374,9.24588571 C12.08394,8.98350476 12.82194,8.84055238 13.56894,8.82607619 C14.52834,8.78264762 14.83614,8.77179048 17.28054,8.77179048 C19.72494,8.77179048 20.03094,8.78264762 20.99034,8.82607619 C21.73734,8.84055238 22.47534,8.98350476 23.17554,9.24588571 C24.38514,9.7163619 25.34094,10.677219 25.80894,11.893219 C26.06994,12.5953143 26.21034,13.337219 26.22654,14.0881714 C26.26974,15.0544571 26.27874,15.3620762 26.27874,17.8194095 C26.27874,20.2767429 26.26974,20.5843619 26.22654,21.5488381 M17.28054,0.447980952 C7.73694,0.447980952 0.00054,8.22531429 0.00054,17.8194095 C0.00054,27.4135048 7.73694,35.1908381 17.28054,35.1908381 C26.82414,35.1908381 34.56054,27.4135048 34.56054,17.8194095 C34.56054,8.22531429 26.82414,0.447980952 17.28054,0.447980952" id="Fill-5" fill="#000000" mask="url(#mask-2)"></path>
                </g>
            </g>
        </g>
    </g>
</svg>