<?xml version="1.0" encoding="UTF-8"?>
<svg width="35px" height="35px" viewBox="0 0 35 35" version="1.1" xmlns="http://www.w3.org/2000/svg" xmlns:xlink="http://www.w3.org/1999/xlink">
    <!-- Generator: Sketch 47 (45396) - http://www.bohemiancoding.com/sketch -->
    <title>Page 1</title>
    <desc>Created with Sketch.</desc>
    <defs>
        <polygon id="path-1" points="34.56 17.27955 34.56 -3.55271368e-15 0 -3.55271368e-15 0 17.27955 0 34.5591 34.56 34.5591 34.56 17.27955"></polygon>
    </defs>
    <g id="Page-1" stroke="none" stroke-width="1" fill="none" fill-rule="evenodd" opacity="0.2">
        <g id="Menu_01" transform="translate(-950.000000, -4218.000000)">
            <g id="Page-1" transform="translate(950.000000, 4218.000000)">
                <mask id="mask-2" fill="white">
                    <use xlink:href="#path-1"></use>
                </mask>
                <g id="Clip-2"></g>
                <path d="M25.83,24.4413 L22.3308,24.4413 L22.3308,18.2025 C22.3308,16.7499 21.8232,15.7635 20.5578,15.7635 C19.5912,15.7635 19.017,16.4295 18.7632,17.0721 C18.6696,17.3025 18.6462,17.6247 18.6462,17.9487 L18.6462,24.4395 L15.1452,24.4395 L15.1452,16.7715 C15.1452,15.3657 15.1002,14.1921 15.0534,13.1805 L18.0936,13.1805 L18.2538,14.7429 L18.324,14.7429 C18.7848,14.0103 19.9134,12.9267 21.8016,12.9267 C24.1038,12.9267 25.83,14.4675 25.83,17.7831 L25.83,24.4413 Z M11.2788,11.7999 C10.1736,11.7999 9.459,11.0169 9.459,10.0467 C9.459,9.0603 10.1952,8.3007 11.3238,8.3007 C12.4524,8.3007 13.1436,9.0603 13.1652,10.0467 C13.1652,11.0169 12.4524,11.7999 11.2788,11.7999 L11.2788,11.7999 Z M9.5508,24.4413 L13.05,24.4413 L13.05,13.1823 L9.5508,13.1823 L9.5508,24.4413 Z M17.28,-0.0009 C7.7364,-0.0009 0,7.7373 0,17.2791 C0,26.8227 7.7364,34.5591 17.28,34.5591 C26.8236,34.5591 34.56,26.8227 34.56,17.2791 C34.56,7.7373 26.8236,-0.0009 17.28,-0.0009 L17.28,-0.0009 Z" id="Fill-1" fill="#000000" mask="url(#mask-2)"></path>
            </g>
        </g>
    </g>
</svg>