<?xml version="1.0" encoding="UTF-8"?>
<svg width="35px" height="35px" viewBox="0 0 35 35" version="1.1" xmlns="http://www.w3.org/2000/svg" xmlns:xlink="http://www.w3.org/1999/xlink">
    <!-- Generator: Sketch 47 (45396) - http://www.bohemiancoding.com/sketch -->
    <title>Page 1</title>
    <desc>Created with Sketch.</desc>
    <defs>
        <polygon id="path-1" points="0.00072 -3.55271368e-15 34.55892 -3.55271368e-15 34.55892 34.55892 0.00072 34.55892"></polygon>
    </defs>
    <g id="Page-1" stroke="none" stroke-width="1" fill="none" fill-rule="evenodd" opacity="0.2">
        <g id="Menu_01" transform="translate(-1006.000000, -4219.000000)">
            <g id="Page-1" transform="translate(1006.000000, 4219.000000)">
                <mask id="mask-2" fill="white">
                    <use xlink:href="#path-1"></use>
                </mask>
                <g id="Clip-2"></g>
                <path d="M23.92632,19.49652 C23.92632,19.49652 25.45452,21.00492 25.83072,21.70512 C25.83972,21.71772 25.84512,21.73212 25.84872,21.73932 C26.00172,21.99852 26.03952,22.19832 25.96392,22.34772 C25.83792,22.59612 25.40412,22.71852 25.25652,22.72932 L22.55652,22.72932 C22.37112,22.72932 21.97872,22.68072 21.50172,22.35312 C21.13632,22.09572 20.77812,21.67812 20.42712,21.26772 C19.90332,20.65932 19.44972,20.13372 18.99252,20.13372 C18.93492,20.13372 18.87552,20.14272 18.82152,20.16072 C18.47592,20.27412 18.03312,20.76552 18.03312,22.08132 C18.03312,22.48992 17.70732,22.72752 17.47872,22.72752 L16.24212,22.72752 C15.82272,22.72752 13.62852,22.57992 11.68452,20.52792 C9.30312,18.01872 7.16292,12.98052 7.14492,12.93372 C7.00992,12.60792 7.28892,12.43512 7.59312,12.43512 L10.31832,12.43512 C10.68372,12.43512 10.80072,12.65652 10.88352,12.85272 C10.98252,13.08132 11.33892,13.98852 11.92392,15.01272 C12.87072,16.67952 13.45392,17.35632 13.91832,17.35632 C14.00832,17.35632 14.08932,17.33112 14.17032,17.28972 C14.77692,16.95132 14.66352,14.78232 14.63832,14.33232 C14.63832,14.24772 14.63472,13.36392 14.32512,12.93732 C14.10192,12.63132 13.72212,12.51432 13.49172,12.47112 C13.55112,12.38112 13.68432,12.24792 13.84992,12.16692 C14.26752,11.95812 15.01992,11.92572 15.76692,11.92572 L16.18272,11.92572 C16.99092,11.93832 17.20152,11.99052 17.49492,12.06432 C18.08892,12.20652 18.10152,12.58992 18.04752,13.90212 C18.03312,14.27472 18.01692,14.69592 18.01692,15.19092 C18.01692,15.29892 18.00972,15.41412 18.00972,15.53832 C17.99352,16.20432 17.97012,16.96392 18.44352,17.27532 C18.50472,17.31312 18.57492,17.33292 18.64692,17.33292 C18.81252,17.33292 19.30572,17.33292 20.64132,15.04152 C21.22632,14.02992 21.67992,12.83832 21.71232,12.74832 C21.73752,12.70332 21.81852,12.55932 21.91212,12.50352 C21.98592,12.45852 22.08492,12.44952 22.13532,12.44952 L25.33932,12.44952 C25.68852,12.44952 25.92792,12.50352 25.97472,12.63672 C26.05392,12.85272 25.96032,13.50432 24.49512,15.48612 C24.25032,15.81552 24.03252,16.10172 23.84352,16.34832 C22.51692,18.08892 22.51692,18.17712 23.92632,19.49652 M17.28072,-0.00108 C7.73712,-0.00108 0.00072,7.73712 0.00072,17.28072 C0.00072,26.82252 7.73712,34.55892 17.28072,34.55892 C26.82252,34.55892 34.55892,26.82252 34.55892,17.28072 C34.55892,7.73712 26.82252,-0.00108 17.28072,-0.00108" id="Fill-1" fill="#000000" mask="url(#mask-2)"></path>
            </g>
        </g>
    </g>
</svg>