<?xml version="1.0" standalone="no"?>
<!DOCTYPE svg PUBLIC "-//W3C//DTD SVG 20010904//EN"
 "http://www.w3.org/TR/2001/REC-SVG-20010904/DTD/svg10.dtd">
<svg version="1.0" xmlns="http://www.w3.org/2000/svg"
 width="350.000000pt" height="350.000000pt" viewBox="0 0 350.000000 350.000000"
 preserveAspectRatio="xMidYMid meet">
<metadata>
Created by potrace 1.11, written by Peter Selinger 2001-2013
</metadata>
<g transform="translate(0.000000,350.000000) scale(0.100000,-0.100000)"
fill="#000000" stroke="none">
<path d="M1508 3484 c-114 -17 -245 -49 -333 -80 -261 -92 -494 -242 -680
-436 -85 -89 -97 -102 -161 -188 -39 -52 -154 -242 -154 -254 0 -3 -13 -33
-30 -68 -31 -67 -95 -252 -104 -303 -3 -16 -8 -41 -11 -55 -24 -124 -30 -184
-29 -355 0 -143 5 -227 19 -289 3 -12 7 -32 9 -46 13 -74 45 -195 66 -245 4
-11 14 -36 21 -55 24 -68 112 -236 166 -320 169 -259 421 -482 693 -613 249
-119 446 -166 725 -172 307 -6 566 52 825 186 101 53 201 113 237 144 6 5 26
21 45 35 254 191 472 500 579 820 101 304 119 601 55 925 -62 313 -246 649
-486 884 -169 166 -331 271 -590 384 -40 17 -190 63 -235 72 -16 3 -66 13
-110 21 -107 21 -402 26 -517 8z m309 -371 c427 -228 774 -608 962 -1053 18
-41 36 -84 41 -95 16 -35 61 -187 80 -270 32 -139 51 -295 54 -443 3 -203 5
-196 -73 -247 -63 -40 -168 -97 -278 -149 -66 -31 -235 -89 -338 -115 -576
-146 -1211 -38 -1699 288 l-39 25 6 201 c3 110 7 209 10 220 3 11 8 40 11 65
10 75 16 100 46 216 149 574 535 1067 1060 1353 41 22 78 41 82 41 3 0 37 -16
75 -37z"/>
<path d="M1709 2424 c-61 -44 -200 -187 -260 -267 -151 -201 -255 -436 -299
-679 -7 -37 -9 -71 -6 -77 16 -26 286 -98 436 -117 96 -11 318 -5 400 11 14 3
41 8 60 11 53 8 209 53 261 75 l46 20 -8 47 c-14 90 -19 109 -49 212 -85 286
-283 581 -506 757 l-41 32 -34 -25z"/>
</g>
</svg>
